<svg xmlns="http://www.w3.org/2000/svg" viewBox="0 0 849 924"><defs><style>.cls-1{fill:#fff;}.cls-2{fill:#29adb8;}.cls-3{fill:#ed5556;}.cls-4{fill:#063b52;}</style></defs><g id="Capa_2" data-name="Capa 2"><g id="Capa_1-2" data-name="Capa 1"><path class="cls-1" d="M849,924H0V0H849ZM217.68,544.39c14-3,27.93-6.76,42.1-8.49,6.46-.79,15,.52,19.9,4.31,58.79,45.13,124.24,62.19,197.74,51.06,132.93-20.12,230-156.34,200-287.53C667,258.11,645,215.13,628.25,171c-1.14,9.47,1.24,18,1.54,26.68,1.5,43.76-15.75,80.94-66.11,83.61-18.95,1-38.16-3.74-57.3-5.38-4.8-.41-11.83-.81-14.32,2-15.28,17-30.25,34.37-43.9,52.68-8.91,11.94-5.18,18,10,17.82,14.39-.2,28.75-2.56,43.14-2.78,31.78-.5,51.36,21.08,46.54,52.6-8.07,52.8-42.5,87.24-84.05,116.05-5.38,3.73-12.12,5.49-18.23,8.16,1.42-6.1,4.57-9.7,7.57-13.42,21-26.14,39.83-53.72,49.52-86.21,7.06-23.68-1.12-31.78-25.2-26.83-1,.2-1.86.76-2.83.95-22.85,4.44-45.56,11.22-68.61,12.71-34,2.21-55-23.08-46-56.15,7.1-26,18.95-50.94,30.26-75.62,6.94-15.15,16.84-28.94,25.86-44.11-25.37-15.82-50.35-24.72-78.7-14.11s-37,37.46-50.23,65.63c-1.07-36.36,6-65.16,28.17-88.72,18.25-19.44,40.15-30,67-21.56s53.33,18.39,79.41,27.49c-2.61-43,6-60.06,34.36-66.48,23.56-5.33,47.2,6.62,54.68,29.9,3,9.41,4.4,22.17.36,30.36-6.38,12.95-18,23.32-27.45,34.92,21.24,9.18,45.75,16.52,71.39,4.07,24.66-12,31.07-45.32,12-63.79C545.86,112,471.75,90.76,388.92,106.07c-178.24,33-259.3,244.41-150.84,389.68,8.38,11.22,15.1,13.18,26.35,4.21,39.29-31.36,70.67-68.29,86.76-120.38,9.47,29.9,31.2,39,61.4,39.09C359.48,484.13,289.14,514.4,217.68,544.39Zm405.67,6.83c-47.64,42.48-102.91,66.36-166.63,71.28-67.26,5.19-127.62-13.08-182.84-51-5.55-3.81-14.44-5.54-21.13-4.41-27.46,4.6-55.2,12.83-82.57,4.65-30-9-49.52,10.93-75.84,18.72,26.2,20.31,52.38,28,81.37,24.84,13.34-1.44,26.88-3,39.68-6.75,11.83-3.45,20.48-.78,30.27,5.87C324.45,667.83,409.28,679,498.82,647,550.12,628.58,592.35,597,623.35,551.22Zm-454.7-19.54L214,512.81c-65.39-96.38-69.52-195.1-19-300.12C119.23,291.71,107.3,442.22,168.65,531.68ZM493.3,785l-6.18,2.74c5.11,25.76,10,51.56,15.52,77.25.81,3.77,4.23,7,6.43,10.46,3.06-3.24,7.44-6,8.93-9.82,5-12.86,8.91-26.11,14.64-43.41,6.05,18.14,10.41,32.18,15.57,45.93,1.12,3,4.83,5.41,7.92,7,.8.4,5-3.18,5.51-5.39,5.85-27.52,11.3-55.13,17.05-83.67-4.82,0-9.19-.52-9.34.07-5.42,20.8-10.45,41.7-16.69,67.32-4.78-15.28-7.82-26.59-12-37.47-1.49-3.89-5.69-6.75-8.66-10.08-2.51,3.26-6,6.15-7.35,9.83-4.11,11-7.4,22.4-11.64,35.6C502.29,828.49,507.89,803.17,493.3,785ZM706.35,832.8c-9.43,1.61-16.69,2.78-23.93,4.1-15.35,2.82-24,11.73-22.46,22.88,1.65,11.57,14.19,18.38,29.2,16.06,8.13-1.26,16.3-2.21,26.46-3.57,0-14,1-30.24-.3-46.33-1-13-11.32-18.31-23.19-18.73-12.19-.43-23.26,2.5-28.47,19.48C679.24,823,696.85,802.76,706.35,832.8ZM600.85,846H646.7c1.91-22.46-6.46-35.44-23.49-38.3-16.11-2.7-30.06,7.51-33.53,24.55-4.2,20.6,4.14,39.31,19.35,43.45,16.88,4.6,30.8-1.68,36.53-18.52-10.16,3.84-18.65,9.13-27.53,9.89C605.78,868.13,601.3,859.05,600.85,846ZM119,827.36v-32c13,0,25.32.28,37.57-.23,2.52-.1,4.91-3.13,7.36-4.82-2-1.6-4-4.54-6.09-4.59-16.66-.38-33.32-.21-51-.21,0,28.61-.16,54.88.24,81.14,0,2.94,3.29,5.84,5.06,8.76,2-3.23,5.48-6.33,5.78-9.71.81-9.17.28-18.47.28-29,13.5,0,24.85.3,36.16-.24,2.37-.12,4.59-3.32,6.88-5.09-2.24-1.35-4.45-3.78-6.73-3.86C143.17,827.14,131.82,827.36,119,827.36Zm295.62,13c0,8.95-.48,17.94.27,26.83.24,2.88,3.69,5.49,5.67,8.22,1.8-2.9,4.95-5.71,5.16-8.72.69-10.4,0-20.88.52-31.31.52-11,6.42-17.76,17.78-18,12.11-.26,18.21,6.25,18.27,18.37.06,10.44-.29,20.91.41,31.32.19,2.88,3.49,5.55,5.36,8.32,1.91-2.86,5.36-5.68,5.45-8.6.36-12.4.84-25-.8-37.21-2.55-19-18.85-27.3-36.62-19.81-3,1.28-7.52,4.44-8.9,3.42-15-11-12.24,1.26-12.55,9.27C414.4,828.41,414.59,834.39,414.62,840.36Zm-20.14,31.37c0-16.86.19-36.57-.27-56.26,0-2.16-3.8-4.23-5.83-6.34-1.73,2.54-4.79,5-4.94,7.62-.62,10.39-.31,20.84-.37,31.27-.06,11.94-5.72,18.55-18,18.6-11.94,0-16.87-7-17.22-17.94-.31-9.92.35-19.9-.45-29.77-.28-3.4-3.7-6.54-5.69-9.79-1.73,3-4.82,5.9-5,9a266.1,266.1,0,0,0,.16,34.24c1.57,18.8,15.54,27.76,33.78,23.06C377.2,873.7,384,873.28,394.48,871.73ZM277,828V795.4c13.78,0,26.21.23,38.62-.21,2.11-.08,4.11-3,6.16-4.61-2-1.64-4-4.66-6-4.71-16.74-.39-33.5-.22-51.27-.22,0,28.43-.17,54.77.24,81.11.05,3,3.43,5.84,5.26,8.75,1.88-2.87,5.16-5.65,5.38-8.65.69-9.68.26-19.45.26-27.65,15.87-6.56,32.22,4.07,44.35-7.22l-1.62-4Zm-58.69-6.08c0,10.44-.53,21.85.14,33.18.87,14.66,9.8,22.22,23.48,20.33,2.59-.36,4.82-3.32,7.22-5.08q-3.12-2.45-6.23-4.9c-4.46-3.53-12.12-6.57-12.76-10.7-1.77-11.45-.61-23.36-.61-32.15l18.17-8.92-18-8.73c-.13-3,.26-7.54-.72-11.77-.75-3.28-3.2-6.18-4.89-9.25-2,3.28-4.53,6.35-5.78,9.89-1.56,4.4-1.09,9.71-3.29,13.61-1.73,3.05-6.19,4.55-9.44,6.74ZM735.9,842H736c0,9-.42,17.93.29,26.83.18,2.23,4,4.18,6.09,6.26,1.6-2.07,4.44-4.06,4.57-6.22a267,267,0,0,0,.25-26.84c-.53-13.66,2.47-23.82,19.16-23.72,2.14,0,4.3-3.67,6.46-5.65-2.76-1.39-5.69-4.18-8.25-3.87-5.26.63-12,5.87-15.2,4.05-20.13-11.36-12,6.16-13.3,12.79C735.05,830.89,735.9,836.53,735.9,842Zm-543.79.86c0-8.91.4-17.85-.25-26.71-.19-2.47-3.5-4.72-5.37-7.07-1.79,2.42-5.07,4.8-5.13,7.26q-.68,26,0,52c.07,2.41,3.45,4.73,5.3,7.09,1.82-2.43,5-4.75,5.21-7.31C192.55,859.73,192.13,851.28,192.11,842.86Z"/><path class="cls-2" d="M217.68,544.39c71.46-30,141.8-60.26,194.91-125.72-30.2-.08-51.93-9.19-61.4-39.09-16.09,52.09-47.47,89-86.76,120.38-11.25,9-18,7-26.35-4.21C129.62,350.48,210.68,139,388.92,106.07c82.83-15.31,156.94,5.9,218.3,65.31,19.07,18.47,12.66,51.81-12,63.79-25.64,12.45-50.15,5.11-71.39-4.07,9.49-11.6,21.07-22,27.45-34.92,4-8.19,2.66-21-.36-30.36-7.48-23.28-31.12-35.23-54.68-29.9-28.39,6.42-37,23.45-34.36,66.48-26.08-9.1-52.5-19.06-79.41-27.49s-48.78,2.12-67,21.56C293.3,220,286.2,248.83,287.27,285.19c13.23-28.17,22-55.06,50.23-65.63s53.33-1.71,78.7,14.11c-9,15.17-18.92,29-25.86,44.11-11.31,24.68-23.16,49.58-30.26,75.62-9,33.07,12,58.36,46,56.15,23.05-1.49,45.76-8.27,68.61-12.71,1-.19,1.86-.75,2.83-.95,24.08-4.95,32.26,3.15,25.2,26.83-9.69,32.49-28.5,60.07-49.52,86.21-3,3.72-6.15,7.32-7.57,13.42,6.11-2.67,12.85-4.43,18.23-8.16,41.55-28.81,76-63.25,84.05-116.05,4.82-31.52-14.76-53.1-46.54-52.6-14.39.22-28.75,2.58-43.14,2.78-15.23.2-19-5.88-10-17.82,13.65-18.31,28.62-35.69,43.9-52.68,2.49-2.77,9.52-2.37,14.32-2,19.14,1.64,38.35,6.38,57.3,5.38,50.36-2.67,67.61-39.85,66.11-83.61-.3-8.64-2.68-17.21-1.54-26.68C645,215.13,667,258.11,677.4,303.74c30,131.19-67,267.41-200,287.53-73.5,11.13-138.95-5.93-197.74-51.06-4.94-3.79-13.44-5.1-19.9-4.31C245.61,537.63,231.7,541.43,217.68,544.39Z"/><path class="cls-3" d="M623.35,551.22c-31,45.75-73.23,77.36-124.53,95.73C409.28,679,324.45,667.83,245.66,614.37c-9.79-6.65-18.44-9.32-30.27-5.87-12.8,3.74-26.34,5.31-39.68,6.75-29,3.11-55.17-4.53-81.37-24.84,26.32-7.79,45.85-27.68,75.84-18.72,27.37,8.18,55.11-.05,82.57-4.65,6.69-1.13,15.58.6,21.13,4.41,55.22,38,115.58,56.24,182.84,51C520.44,617.58,575.71,593.7,623.35,551.22Z"/><path class="cls-3" d="M168.65,531.68c-61.35-89.46-49.42-240,26.31-319-50.49,105-46.36,203.74,19,300.12Z"/><path class="cls-4" d="M493.3,785c14.59,18.15,9,43.47,19.73,66.32,4.24-13.2,7.53-24.55,11.64-35.6,1.37-3.68,4.84-6.57,7.35-9.83,3,3.33,7.17,6.19,8.66,10.08,4.16,10.88,7.2,22.19,12,37.47,6.24-25.62,11.27-46.52,16.69-67.32.15-.59,4.52-.07,9.34-.07-5.75,28.54-11.2,56.15-17.05,83.67-.47,2.21-4.71,5.79-5.51,5.39-3.09-1.55-6.8-4-7.92-7-5.16-13.75-9.52-27.79-15.57-45.93-5.73,17.3-9.66,30.55-14.64,43.41-1.49,3.85-5.87,6.58-8.93,9.82-2.2-3.48-5.62-6.69-6.43-10.46-5.48-25.69-10.41-51.49-15.52-77.25Z"/><path class="cls-4" d="M706.35,832.8c-9.5-30-27.11-9.79-42.69-6.11,5.21-17,16.28-19.91,28.47-19.48,11.87.42,22.16,5.73,23.19,18.73,1.27,16.09.3,32.36.3,46.33-10.16,1.36-18.33,2.31-26.46,3.57-15,2.32-27.55-4.49-29.2-16.06-1.59-11.15,7.11-20.06,22.46-22.88C689.66,835.58,696.92,834.41,706.35,832.8Zm-1.74,8.54c-10.2,2.3-18.9,3.46-26.91,6.47-3.08,1.15-6.59,6.76-6.22,9.92s4.79,7.34,8.29,8.51C694,871,703.43,862.34,704.61,841.34Z"/><path class="cls-4" d="M600.85,846c.45,13,4.93,22.13,17.18,21.07,8.88-.76,17.37-6.05,27.53-9.89C639.83,874,625.91,880.3,609,875.7c-15.21-4.14-23.55-22.85-19.35-43.45,3.47-17,17.42-27.25,33.53-24.55,17,2.86,25.4,15.84,23.49,38.3Zm0-10h35.64c-1.33-12.89-7.43-20-19.21-19.37C606.29,817.19,600.92,824.38,600.9,836Z"/><path class="cls-4" d="M119,827.36c12.82,0,24.17-.22,35.49.19,2.28.08,4.49,2.51,6.73,3.86-2.29,1.77-4.51,5-6.88,5.09-11.31.54-22.66.24-36.16.24,0,10.51.53,19.81-.28,29-.3,3.38-3.76,6.48-5.78,9.71-1.77-2.92-5-5.82-5.06-8.76-.4-26.26-.24-52.53-.24-81.14,17.7,0,34.36-.17,51,.21,2.07,0,4.06,3,6.09,4.59-2.45,1.69-4.84,4.72-7.36,4.82-12.25.51-24.53.23-37.57.23Z"/><path class="cls-4" d="M414.6,840.36c0-6-.2-12,0-17.91.31-8-2.43-20.31,12.55-9.27,1.38,1,5.88-2.14,8.9-3.42,17.77-7.49,34.07.77,36.62,19.81,1.64,12.24,1.16,24.81.8,37.21-.09,2.92-3.54,5.74-5.45,8.6-1.87-2.77-5.17-5.44-5.36-8.32-.7-10.41-.35-20.88-.41-31.32-.06-12.12-6.16-18.63-18.27-18.37-11.36.25-17.26,7-17.78,18-.5,10.43.17,20.91-.52,31.31-.21,3-3.36,5.82-5.16,8.72-2-2.73-5.43-5.34-5.67-8.22C414.14,858.3,414.62,849.31,414.6,840.36Z"/><path class="cls-4" d="M394.48,871.73c-10.44,1.55-17.28,2-23.79,3.65-18.24,4.7-32.21-4.26-33.78-23.06a266.1,266.1,0,0,1-.16-34.24c.14-3.06,3.23-6,5-9,2,3.25,5.41,6.39,5.69,9.79.8,9.87.14,19.85.45,29.77.35,11,5.28,18,17.22,17.94,12.28,0,17.94-6.66,18-18.6.06-10.43-.25-20.88.37-31.27.15-2.63,3.21-5.08,4.94-7.62,2,2.11,5.78,4.18,5.83,6.34C394.67,835.16,394.48,854.87,394.48,871.73Z"/><path class="cls-4" d="M277,828h41.33l1.62,4c-12.13,11.29-28.48.66-44.35,7.22,0,8.2.43,18-.26,27.65-.22,3-3.5,5.78-5.38,8.65-1.83-2.91-5.21-5.8-5.26-8.75-.41-26.34-.24-52.68-.24-81.11,17.77,0,34.53-.17,51.27.22,2,0,4,3.07,6,4.71-2,1.61-4,4.53-6.16,4.61-12.41.44-24.84.21-38.62.21Z"/><path class="cls-4" d="M218.31,821.92l-12.67-7.75c3.25-2.19,7.71-3.69,9.44-6.74,2.2-3.9,1.73-9.21,3.29-13.61,1.25-3.54,3.8-6.61,5.78-9.89,1.69,3.07,4.14,6,4.89,9.25,1,4.23.59,8.78.72,11.77l18,8.73-18.17,8.92c0,8.79-1.16,20.7.61,32.15.64,4.13,8.3,7.17,12.76,10.7q3.11,2.46,6.23,4.9c-2.4,1.76-4.63,4.72-7.22,5.08-13.68,1.89-22.61-5.67-23.48-20.33C217.78,843.77,218.31,832.36,218.31,821.92Z"/><path class="cls-4" d="M735.9,842c0-5.47-.85-11.11.21-16.37,1.34-6.63-6.83-24.15,13.3-12.79,3.22,1.82,9.94-3.42,15.2-4.05,2.56-.31,5.49,2.48,8.25,3.87-2.16,2-4.32,5.67-6.46,5.65-16.69-.1-19.69,10.06-19.16,23.72a267,267,0,0,1-.25,26.84c-.13,2.16-3,4.15-4.57,6.22-2.13-2.08-5.91-4-6.09-6.26-.71-8.9-.29-17.88-.29-26.83Z"/><path class="cls-4" d="M192.12,842.86c0,8.42.43,16.87-.24,25.23-.21,2.56-3.39,4.88-5.21,7.31-1.85-2.36-5.23-4.68-5.3-7.09q-.69-26,0-52c.06-2.46,3.34-4.84,5.13-7.26,1.87,2.35,5.18,4.6,5.37,7.07C192.51,825,192.11,834,192.12,842.86Z"/><path class="cls-1" d="M704.61,841.34c-1.18,21-10.65,29.61-24.84,24.9-3.5-1.17-7.92-5.32-8.29-8.51s3.14-8.77,6.22-9.92C685.71,844.8,694.41,843.64,704.61,841.34Z"/><path class="cls-1" d="M600.9,836c0-11.62,5.39-18.81,16.43-19.37,11.78-.6,17.88,6.48,19.21,19.37Z"/></g></g></svg>